<?xml version="1.0" standalone="no"?>
<!DOCTYPE svg PUBLIC "-//W3C//DTD SVG 20010904//EN"
 "http://www.w3.org/TR/2001/REC-SVG-20010904/DTD/svg10.dtd">
<svg version="1.0" xmlns="http://www.w3.org/2000/svg"
 width="600.000000pt" height="600.000000pt" viewBox="0 0 600.000000 600.000000"
 preserveAspectRatio="xMidYMid meet">
<metadata>
Created by potrace 1.14, written by Peter Selinger 2001-2017
</metadata>
<g transform="translate(0.000000,600.000000) scale(0.100000,-0.100000)"
fill="#000000" stroke="none">
<path d="M0 3000 l0 -3000 3000 0 3000 0 0 1480 0 1480 -50 0 -50 0 0 59 c0
65 6 71 66 71 l34 0 0 1455 0 1455 -3000 0 -3000 0 0 -3000z m5801 2930 c35
-19 20 -30 -43 -30 l-63 1 24 19 c26 22 53 25 82 10z m-4565 -251 c20 -16 19
-122 -1 -139 -10 -9 -78 -12 -252 -11 -270 2 -263 -1 -263 83 0 84 -1 83 268
81 161 -1 238 -6 248 -14z m-450 -1745 c-3 -9 -6 -24 -6 -35 0 -17 -8 -19 -74
-19 -50 0 -75 -4 -78 -12 -3 -7 -20 -91 -39 -185 l-33 -173 -43 0 c-24 0 -43
4 -43 8 0 5 16 87 35 182 19 95 35 175 35 177 0 2 -31 3 -70 3 -73 0 -76 2
-64 48 6 22 8 22 196 22 169 0 189 -2 184 -16z m144 4 c-1 -7 -7 -42 -15 -78
-8 -36 -14 -71 -15 -77 0 -10 28 -13 109 -13 l109 0 17 90 17 90 44 0 c24 0
44 -3 44 -7 -1 -5 -20 -102 -43 -218 l-43 -210 -42 -3 c-49 -4 -49 -3 -27 98
8 36 14 71 15 78 0 9 -28 12 -109 12 l-109 0 -18 -95 -18 -95 -44 0 c-41 0
-44 2 -40 23 2 12 22 111 43 220 l39 197 43 0 c28 0 43 -4 43 -12z m746 -4
c-3 -9 -6 -24 -6 -35 0 -18 -8 -19 -119 -19 -66 0 -122 -3 -124 -7 -3 -5 -8
-29 -12 -55 l-7 -48 105 0 104 0 -6 -32 -7 -33 -106 -3 -106 -3 -11 -50 c-6
-27 -11 -54 -11 -59 0 -6 51 -10 120 -10 112 0 120 -1 120 -19 0 -51 -1 -51
-176 -51 -125 0 -164 3 -164 13 0 6 19 105 41 220 l42 207 165 0 c146 0 163
-2 158 -16z m318 -623 c169 -82 208 -300 77 -431 -56 -56 -119 -80 -211 -80
-85 0 -148 22 -203 71 -66 58 -90 115 -85 209 2 64 8 85 33 125 36 58 95 102
162 121 64 18 172 11 227 -15z m3034 -5 c26 -13 57 -35 69 -48 l22 -23 -54
-48 c-29 -26 -57 -47 -60 -47 -4 0 -20 11 -37 25 -43 37 -116 35 -159 -3 -25
-23 -33 -38 -36 -78 -9 -94 50 -154 138 -139 l39 7 0 69 0 70 78 -3 c54 -2 77
-7 76 -15 -1 -7 -2 -58 -2 -114 l-2 -100 -57 -27 c-52 -24 -70 -27 -163 -27
-121 0 -160 15 -222 83 -52 58 -72 117 -66 202 9 117 80 204 195 236 69 20
181 11 241 -20z m-4418 -68 l1 -93 87 93 87 93 95 -3 95 -3 -103 -112 c-68
-74 -101 -117 -96 -125 6 -11 162 -220 197 -265 7 -10 -13 -13 -95 -13 l-104
0 -59 80 c-32 44 -61 80 -64 80 -2 0 -13 -7 -23 -17 -14 -12 -18 -31 -18 -80
l0 -63 -85 0 -85 0 0 260 0 260 85 0 85 0 0 -92z m630 -24 l95 -115 3 115 3
116 84 0 85 0 0 -260 0 -260 -74 0 -74 0 -94 112 -93 112 -3 -112 -3 -112 -84
0 -85 0 0 260 0 260 73 0 72 -1 95 -115z m1115 59 c43 -151 69 -226 74 -213 3
8 23 71 46 140 l41 125 81 3 81 3 30 -98 c17 -54 36 -117 43 -141 7 -23 14
-40 17 -37 3 3 24 65 48 138 l42 132 87 3 c73 2 87 0 82 -12 -3 -8 -41 -125
-84 -260 l-78 -246 -96 0 -96 0 -38 128 c-21 70 -39 128 -40 130 -1 2 -21 -56
-44 -128 l-42 -131 -96 3 -96 3 -78 245 c-43 135 -79 251 -79 258 0 9 24 12
89 12 l90 0 16 -57z m885 -133 l0 -190 115 0 115 0 0 -70 0 -70 -205 0 -205 0
0 260 0 260 90 0 90 0 0 -190z m690 120 l0 -70 -120 0 -120 0 0 -25 0 -25 105
0 105 0 0 -65 0 -65 -105 0 -105 0 0 -35 0 -35 125 0 125 0 0 -65 0 -65 -215
0 -215 0 0 260 0 260 210 0 210 0 0 -70z m467 41 c66 -29 128 -95 143 -152 32
-119 -11 -237 -108 -295 -65 -40 -92 -44 -279 -44 l-153 0 0 253 c0 140 3 257
8 261 4 5 81 6 172 4 145 -4 171 -7 217 -27z m1193 -41 l0 -70 -120 0 -120 0
0 -25 0 -25 105 0 105 0 0 -65 0 -65 -105 0 -105 0 0 -34 0 -35 125 6 125 6 0
-71 0 -72 -215 0 -215 0 0 260 0 260 210 0 210 0 0 -70z m-1973 -786 c26 -16
49 -37 51 -45 2 -9 -17 -33 -43 -54 -43 -35 -47 -36 -64 -21 -49 45 -140 37
-166 -14 -36 -70 -6 -153 60 -166 61 -11 75 0 75 62 l0 54 65 0 65 0 0 -95 0
-95 -42 -22 c-60 -30 -191 -37 -253 -14 -56 22 -118 91 -135 151 -28 100 19
218 105 262 52 28 78 33 157 29 65 -2 85 -7 125 -32z m406 14 c114 -34 153
-178 72 -264 l-34 -36 40 -60 c23 -33 42 -58 44 -56 1 2 44 99 95 216 l93 212
76 0 76 0 93 -213 c50 -117 92 -216 92 -220 0 -4 -35 -7 -79 -7 l-78 0 -9 33
-10 32 -85 3 -85 3 -13 -36 -12 -35 -158 0 -158 0 -37 56 c-48 72 -70 71 -74
-4 l-3 -52 -75 0 -74 0 0 220 0 220 131 0 c73 0 149 -5 172 -12z m1014 -20
c92 -61 99 -189 14 -261 -31 -26 -106 -47 -166 -47 l-35 0 0 -50 0 -50 -80 0
-80 0 0 221 0 221 153 -4 c147 -3 155 -4 194 -30z m273 -48 l0 -80 65 0 65 0
0 80 0 80 75 0 75 0 0 -220 0 -220 -75 0 -75 0 0 80 0 80 -65 0 -65 0 0 -80 0
-80 -80 0 -80 0 0 220 0 220 80 0 80 0 0 -80z"/>
<path d="M907 5640 c-16 -5 -35 -14 -43 -21 -14 -11 -14 -13 0 -21 28 -15 244
-30 266 -18 22 12 26 40 8 58 -14 14 -186 15 -231 2z"/>
<path d="M1783 3155 c-34 -34 -35 -38 -31 -95 5 -69 23 -95 78 -111 52 -16
106 8 125 55 40 95 -9 186 -98 186 -31 0 -46 -7 -74 -35z"/>
<path d="M4188 3184 c-5 -4 -8 -59 -8 -122 l0 -114 66 4 c60 4 70 7 95 36 46
51 38 143 -15 177 -27 18 -127 32 -138 19z"/>
<path d="M3870 2335 c0 -53 13 -63 69 -49 29 7 37 14 39 37 5 41 -14 57 -64
57 l-44 0 0 -45z"/>
<path d="M4391 2304 c-8 -22 -16 -45 -18 -51 -4 -9 6 -13 31 -13 41 0 43 8 18
64 l-17 38 -14 -38z"/>
<path d="M4850 2330 c0 -46 2 -50 24 -50 65 0 98 36 71 76 -12 19 -24 24 -55
24 l-40 0 0 -50z"/>
</g>
</svg>
